<?xml version="1.0" encoding="UTF-8" standalone="no"?>
<svg
   xmlns:dc="http://purl.org/dc/elements/1.1/"
   xmlns:cc="http://creativecommons.org/ns#"
   xmlns:rdf="http://www.w3.org/1999/02/22-rdf-syntax-ns#"
   xmlns:svg="http://www.w3.org/2000/svg"
   xmlns="http://www.w3.org/2000/svg"
   xmlns:sodipodi="http://sodipodi.sourceforge.net/DTD/sodipodi-0.dtd"
   xmlns:inkscape="http://www.inkscape.org/namespaces/inkscape"
   width="288.99554mm"
   height="166.15112mm"
   viewBox="0 0 1024 588.72445"
   id="svg2"
   version="1.1"
   inkscape:version="1.0.1 (c497b03c, 2020-09-10)"
   sodipodi:docname="cochon.svg">
  <defs
     id="defs4" />
  <sodipodi:namedview
     id="base"
     pagecolor="#ffffff"
     bordercolor="#666666"
     borderopacity="1.0"
     inkscape:pageopacity="0.0"
     inkscape:pageshadow="2"
     inkscape:zoom="0.49497475"
     inkscape:cx="749.70335"
     inkscape:cy="342.7069"
     inkscape:document-units="px"
     inkscape:current-layer="layer1"
     showgrid="false"
     fit-margin-top="0"
     fit-margin-left="0"
     fit-margin-right="0"
     fit-margin-bottom="0"
     inkscape:window-width="1434"
     inkscape:window-height="804"
     inkscape:window-x="0"
     inkscape:window-y="23"
     inkscape:window-maximized="1"
     inkscape:document-rotation="0" />
  <metadata
     id="metadata7">
    <rdf:RDF>
      <cc:Work
         rdf:about="">
        <dc:format>image/svg+xml</dc:format>
        <dc:type
           rdf:resource="http://purl.org/dc/dcmitype/StillImage" />
        <dc:title />
      </cc:Work>
    </rdf:RDF>
  </metadata>
  <g
     inkscape:label="Calque 1"
     inkscape:groupmode="layer"
     id="layer1"
     transform="translate(-17.67592,-87.553992)">
    <path
       style="opacity:1;fill:#a5243d;fill-rule:evenodd;stroke:none;stroke-width:1px;stroke-linecap:butt;stroke-linejoin:miter;stroke-opacity:1;fill-opacity:1"
       d="m 793.79908,87.56041 c -0.25053,0.01839 0.34469,0.102626 1.6251,0.228703 1.82202,-0.09837 -1.05537,-0.270479 -1.6251,-0.228703 z m 1.6251,0.228703 c -0.9461,0.05105 -3.10079,0.08304 -7.62629,0.05311 -21.18628,-0.139923 -72.21888,6.523401 -124.54196,14.332817 -52.32308,7.80942 -88.29864,10.82912 -146.60897,16.66015 -58.31031,5.83103 -126.1998,11.66246 -173.26462,24.15753 -47.06472,12.49507 -98.71177,49.14748 -119.9533,62.47555 -21.24162,13.32807 -57.47628,60.39148 -69.97136,74.96906 -12.49507,14.57756 -32.85004,20.15521 -39.99952,24.09472 -7.14948,3.9395 -26.989723,17.99725 -32.051148,23.42631 -5.061345,5.42907 -7.347143,8.03426 -10.285307,12.65134 -2.938164,4.61709 -5.670254,7.50936 -6.848323,9.42368 -1.178069,1.91432 1.620979,4.85944 1.4737,6.18474 -0.147279,1.3253 -2.356798,2.06135 -3.976623,2.79763 -1.619743,0.73628 -1.178482,7.36348 -1.620238,8.09976 -0.441756,0.73628 -3.680662,0.88307 -5.300488,2.50288 -1.619825,1.61981 -0.883758,12.95851 0.735984,14.43107 1.619825,1.47254 5.793453,-1.22373 7.068995,0 1.27554,1.22372 0.146536,1.7666 0.146536,3.53367 0,1.76707 -1.471803,8.68877 -2.208117,11.19213 -0.736314,2.50336 -2.061828,17.96589 -2.356304,21.50003 -0.294558,3.53415 5.58243,7.51905 5.005764,10.45447 -0.576665,2.93541 -3.385692,2.64991 -4.71104,4.26972 -1.325266,1.61981 -6.774024,7.65775 -9.571835,10.89739 -2.797896,3.23962 -11.979762,10.00627 -17.964778,11.48687 -5.984932,1.48059 -2.286127,-4.3462 -10.53014,-0.58949 -8.244012,3.75672 4.292623,21.06582 5.542105,23.56484 1.249483,2.49901 7.498051,-6.4e-4 12.079542,3.74788 4.581574,3.74853 5.414618,19.57601 14.577682,24.15754 9.163065,4.58152 16.659796,-1.24951 19.575367,0 2.915487,1.24951 4.997435,5.41552 18.325468,5.83202 13.328128,0.4165 19.575708,-4.16504 22.907708,-4.16504 3.33201,0 38.73463,3.33073 54.97815,1.24822 16.2436,-2.0825 32.07118,-8.3291 36.65267,-8.7456 4.58149,-0.41651 8.74663,0.41586 18.74265,-0.41715 9.99603,-0.83302 28.73876,-10.4126 33.32034,-10.4126 4.58148,0 19.57503,1.66602 37.06812,2.08252 17.49309,0.4165 37.90158,-11.24465 48.73064,-17.07568 10.82908,-5.83103 21.48514,-9.36392 25.82286,-4.99933 4.33782,4.36458 -0.83295,3.74855 -2.08251,10.41259 -1.24949,6.66403 -0.41611,28.73977 5.41494,45.39987 5.83098,16.66008 4.58215,31.23783 4.58215,49.98043 0,18.7426 -7.91326,32.06983 -11.24526,37.90086 -3.33201,5.83104 -13.74464,17.07669 -18.74265,22.90771 -4.9981,5.83103 -12.91292,15.41097 -11.24691,17.90998 1.666,2.49901 14.57792,2.08219 24.15752,0.83268 9.57958,-1.2495 30.40451,-2.49837 38.31801,-3.74789 7.91358,-1.24951 11.66179,-9.99739 13.32778,-15.41191 1.66601,-5.41453 5.83238,-12.07797 11.24692,-12.07797 5.41454,0 9.42134,-5.42631 15.82584,-7.49738 6.40451,-2.0711 14.5786,-1.66604 22.49217,-4.16504 7.91351,-2.49902 12.49384,-18.74141 13.74332,-24.15593 1.24949,-5.41453 -0.41553,-39.56885 -2.49805,-51.64742 -2.08252,-12.07856 6.24791,-25.40648 9.57991,-46.64809 3.33201,-21.24161 24.15662,-17.90996 37.06821,-13.74494 12.91152,4.16502 98.29393,-2.91488 119.11903,-3.74789 20.82517,-0.83301 50.20063,-10.69053 53.73476,-8.77621 3.5342,1.91433 13.40101,18.70147 20.46926,18.55422 7.06826,-0.14725 33.13182,-14.2845 39.31657,-18.40765 6.18475,-4.12317 12.07525,-22.97213 14.72587,-22.97213 2.65061,0 4.26995,3.82979 6.626,4.56607 2.35614,0.73628 19.43774,-11.63342 24.73897,-13.69501 5.30122,-2.06158 14.87257,-1.03079 17.22871,-3.09237 2.35606,-2.06158 1.76726,-9.27711 3.38709,-9.27711 1.61983,0 7.36331,-1.91432 10.89745,-2.06158 3.53412,-0.14726 6.47919,8.09906 10.30791,14.43106 3.82856,6.332 11.04385,18.70055 13.10543,26.65237 2.06158,7.95181 7.21604,23.41366 8.83587,29.89292 1.61984,6.47925 6.03679,16.34653 7.3621,18.99713 1.32532,2.65061 1.47254,14.57809 2.06158,18.25949 0.58897,3.68139 -2.06084,14.57716 -3.23893,23.26526 -1.17809,8.68809 -5.74251,20.02723 -7.65687,29.4516 -1.91428,9.42437 -7.2157,16.49219 -9.57189,17.96475 -2.35602,1.47256 -4.56557,2.94603 -6.03819,5.30213 -1.47253,2.3561 -5.0064,6.77284 -7.95147,9.12893 -2.94516,2.3561 -4.5645,7.21644 -7.65687,13.54846 -3.0924,6.332 -4.27047,9.71887 2.06158,12.36947 6.33197,2.65061 22.97143,1.9134 32.39577,0.88261 9.42435,-1.03079 9.86683,0.58902 10.16136,3.09237 0.29452,2.50336 -1.91527,6.1852 -3.24059,7.80502 -1.32523,1.61981 -9.13006,7.80547 -15.75655,13.54844 -6.62649,5.74297 -3.88803,11.74039 4.44201,12.1569 8.33013,0.4165 32.06983,1.24885 35.81839,-0.41715 3.74856,-1.66602 4.8158,-16.49491 9.57989,-17.90838 4.76409,-1.41346 2.49912,1.66505 8.33004,4.58058 5.83109,2.91551 14.99357,-16.24335 16.24301,-25.82292 1.24951,-9.57953 6.24883,-41.64947 9.16445,-64.97359 2.91546,-23.32413 12.0786,-47.06563 18.74262,-62.8927 6.66402,-15.82709 -0.41684,-22.07374 -3.33238,-27.48828 -2.91554,-5.41454 -0.41708,-27.07376 5.83043,-45.39986 6.24751,-18.3261 20.49615,-44.25816 30.21501,-50.73743 9.71895,-6.47926 17.37619,-34.45807 18.55429,-45.64951 1.178,-11.19144 -6.2859,-36.89298 -7.1189,-44.39002 -0.83295,-7.49702 2.2905,-43.94146 4.9977,-44.98271 2.7073,-1.04126 13.7449,16.86779 19.3676,24.57307 5.6228,7.70528 10.8298,18.95124 14.9948,17.90998 4.1649,-1.04125 0.2085,-21.2411 -7.0803,-34.98567 -7.2888,-13.74457 -6.3119,-31.21753 1.9344,-36.22422 8.2462,-5.00669 7.852,-24.16915 4.9365,-27.50116 -2.9155,-3.33202 -44.56464,-4.99837 -49.14613,-5.41488 -4.58157,-0.4165 -8.74672,-13.32686 -18.7427,-24.15591 -9.99599,-10.82906 -48.73099,-29.15628 -70.80565,-45.39987 -22.07459,-16.24359 -73.79864,-28.347974 -97.46121,-29.987945 -4.59435,-0.318424 -6.81839,-0.505649 -8.19313,-0.64102 z M 1021.1414,212.20227 c 0,0 -12.811,11.338 -15.1671,10.45448 -2.3561,-0.88354 -7.36206,-8.39289 -7.36206,-8.39289 4.27046,-0.14727 22.52916,-2.06159 22.52916,-2.06159 z"
       id="path3347"
       inkscape:connector-curvature="0" />
  </g>
</svg>
