<?xml version="1.0" encoding="UTF-8" standalone="no"?>
<svg
   xmlns:dc="http://purl.org/dc/elements/1.1/"
   xmlns:cc="http://creativecommons.org/ns#"
   xmlns:rdf="http://www.w3.org/1999/02/22-rdf-syntax-ns#"
   xmlns:svg="http://www.w3.org/2000/svg"
   xmlns="http://www.w3.org/2000/svg"
   xmlns:sodipodi="http://sodipodi.sourceforge.net/DTD/sodipodi-0.dtd"
   xmlns:inkscape="http://www.inkscape.org/namespaces/inkscape"
   version="1.1"
   id="Layer_1"
   x="0px"
   y="0px"
   width="448.208px"
   height="476.908px"
   viewBox="0 0 448.208 476.908"
   enable-background="new 0 0 448.208 476.908"
   xml:space="preserve"
   sodipodi:docname="coq.svg"
   inkscape:version="1.0.1 (c497b03c, 2020-09-10)"><metadata
   id="metadata886"><rdf:RDF><cc:Work
       rdf:about=""><dc:format>image/svg+xml</dc:format><dc:type
         rdf:resource="http://purl.org/dc/dcmitype/StillImage" /></cc:Work></rdf:RDF></metadata><defs
   id="defs884" /><sodipodi:namedview
   pagecolor="#ffffff"
   bordercolor="#666666"
   borderopacity="1"
   objecttolerance="10"
   gridtolerance="10"
   guidetolerance="10"
   inkscape:pageopacity="0"
   inkscape:pageshadow="2"
   inkscape:window-width="902"
   inkscape:window-height="480"
   id="namedview882"
   showgrid="false"
   inkscape:zoom="1.2958474"
   inkscape:cx="224.104"
   inkscape:cy="238.45399"
   inkscape:window-x="0"
   inkscape:window-y="23"
   inkscape:window-maximized="0"
   inkscape:current-layer="Layer_1" />
<path
   fill-rule="evenodd"
   clip-rule="evenodd"
   d="m 108.75,475.288 c 1.065,-0.658 2.13,-1.315 3.196,-1.974 -6.724,-0.754 -13.447,-1.509 -20.171,-2.263 7.258,-3.564 12.734,-10.225 21.612,-7.615 8.659,2.545 16.423,0.32 21.978,-6.903 5.956,-7.746 8.5,-20.846 10.918,-30.174 2.91,-11.223 3.679,-22.632 5.468,-34.03 -13.705,2.342 -19.491,-6.675 -27.16,-16.136 -8.757,-10.804 -19.204,-20.321 -31.67,-26.655 C 79.239,342.586 69.805,329.856 59.583,318.671 48.151,306.163 36.24,294.236 24.27,282.237 13.864,271.805 3.85,262.562 1.13,247.432 -1.611,232.183 0.827,215.894 6.367,201.545 12.034,186.865 20.453,173.01 28.015,159.246 35.588,145.463 43.151,131.675 50.697,117.878 44.006,116.21 33.84,116.373 31.782,108.392 29.159,98.219998 39.116,91.977 45.552,86.05 37.844,84.871998 30.3,89.702998 22.667,86.895002 26.519,82.254998 30.371,77.615 34.223,72.975001 27.28,69.44 27.136,61.575998 29.091,54.926 c 1.952,-6.643998 0.28,-9.509 8.299,-10.312 -0.596,-3.167 -1.19,-6.333 -1.786,-9.499 -1.25,-6.652 4.994,0.725 6.788,2.387 5.098,4.722 2.25,-3.405 1.69,-6.016 -0.934,-4.354 -1.402,-7.144 -0.188,-11.418 5.91,3.261 8.995,8.521 13.041,13.876 C 60.156,26.91 54.723,18.772 59.338,12.17 60.799,14.539 68.222,28.4 69.98,27.325 70.717,18.216 71.456,9.1080001 72.193,0 77.555,7.2859999 75.699,17.508 82.228,24.244 84.521,18.278 86.814,12.311 89.107,6.3459998 90.604,10.187 92.1,14.029 93.596,17.87 c 3.618,0 7.911,-0.59 10.866,2.011 6.821,6.002 -2.151,15.789 -6.989,19.544 -2.312,1.793 -8.96,4.173 -9.597,7.209 -0.672,3.200998 6.352,5.875999 8.389,6.921999 8.195,4.207003 16.239,6.559003 23.096,13.106003 13.876,13.249996 19.419,31.99 22.191,50.414998 3.243,21.56 6.928,43.222 12.552,64.313 4.739,17.772 25.093,22.667 40.89,25.732 8.637,1.676 19.855,3.785 28.055,-0.499 8.631,-4.509 14.717,-16.169 20.505,-23.708 23.271,-30.315 50.46,-64.612 92.149,-66.37 11.202,-0.473 22.243,1.999 33.165,4.185 10.269,2.056 20.719,4.317 29.893,9.571 16.485,9.441 30.35,26.154 39.068,42.833 19.342,37 11.591,87.481 -22.709,112.958 4.889,-17.078 16.305,-31.608 20.301,-49.216 1.914,-8.429 2.374,-17.181 0.993,-25.729 -1.149,-7.118 -3.662,-18.779 -9.281,-23.748 0.583,11.333 1.926,22.849 0.845,34.185 -1.029,10.79 -4.078,21.286 -8.16,31.296 -4.246,10.415 -9.296,20.528 -14.312,30.589 -2.336,4.686 -4.7,9.356 -7.06,14.03 -1.685,3.336 -4.873,13.894 -8.467,15.23 7.373,-34.884 19.327,-70.009 13.263,-106.075 -2.06,8.035 -4.387,16.438 -14.313,16.413 0.4,5.484 1.942,11.748 -1.3,16.701 -3.196,4.882 -9.271,6.065 -14.47,7.604 -3.197,0.946 -6.392,1.905 -9.589,2.853 0.786,3.87 1.689,7.718 2.394,11.604 0.955,5.279 0.44,10.3 -4.715,13.106 -4.468,2.433 -9.839,1.955 -14.738,1.936 -3.56,-0.015 -6.369,-1.156 -8.296,2.124 -2.09,3.557 -4.062,7.184 -6.253,10.68 -3.859,6.158 -8.714,11.173 -14.052,16.053 -2.076,1.897 -4.145,5.648 -6.667,3.727 1.453,-4.337 2.907,-8.673 4.361,-13.009 -2.145,-0.998 -16.71,20.212 -18.888,23.019 -2.826,-7.353 -5.652,-14.704 -8.479,-22.057 -3.807,14.366 -8.063,29.341 -24.069,33.326 0,-2.313 1.069,-12.059 -1.033,-12.447 -2.513,3.771 -5.024,7.541 -7.536,11.312 -1.717,-2.926 -5.39,-12.672 -9.222,-12.858 -4.668,-0.227 -9.9,4.177 -12.71,7.477 -7.778,9.136 -9.949,20.205 -21.77,25.819 -0.275,-1.197 -0.55,-2.395 -0.824,-3.592 -3.162,3.706 -4.501,8.539 -8.019,12.111 -4.122,4.185 -5.471,5.227 -5.55,11.419 -0.169,13.4 -4.095,25.228 -8.206,37.812 -4.112,12.586 -7.738,25.323 -11.396,38.046 -1.163,4.045 -4.098,9.384 -0.199,12.874 3.721,3.33 7.125,7.101 7.564,12.312 -2.94,-0.17 -5.88,-0.339 -8.821,-0.508 -1.54,-0.089 -3.081,-0.178 -4.621,-0.267 -0.326,1.494 -0.955,3.006 -2.194,3.976 -3.229,2.523 -10.096,1.135 -14.028,1.783 -8.323,1.37201 -17.093,0.94799 -25.467,0.279 -4.276,-0.342 -8.542,-0.802 -12.821,-1.114 -1.945,-0.143 -8.135,1.366 -8.565,0.12 0.947,-0.585 0.113,0.327 0,0 z m 49.079,-18.364 c 3.473,-10.139 7.31,-20.07 9.89,-30.498 0.939,-3.796 7.71,-32.084 1.767,-31.148 -3.121,11.209 -6.163,22.439 -9.311,33.641 -1.694,6.03 -3.419,12.053 -5.203,18.058 -1.366,4.6 -2.032,7.661 2.857,9.947 0.758,-2.214 -3.656,-1.71 0,0 z"
   id="path879"
   style="fill:#a0ccda;stroke-width:0.999999;fill-opacity:1" />
</svg>
